HIERARCHY
ROOT Hips
{
	OFFSET	0.00	0.00	0.00
	CHANNELS 6 Xposition Yposition Zposition Zrotation Xrotation Yrotation
	JOINT LeftUpLeg
	{
		OFFSET	 0.126116	-0.065224	 0.014019
		CHANNELS 3 Zrotation Xrotation Yrotation
		JOINT LeftLeg
		{
			OFFSET	 0.000000	 0.569914	 0.000000
			CHANNELS 3 Zrotation Xrotation Yrotation
			JOINT LeftFoot
			{
				OFFSET	 0.000000	 0.544423	 0.000000
				CHANNELS 3 Zrotation Xrotation Yrotation
				JOINT LeftToeBase
				{
					OFFSET	 0.000000	 0.207117	 0.000000
					CHANNELS 3 Zrotation Xrotation Yrotation
					End Site
					{
						OFFSET	 0.000000	 0.207117	 0.000000
					}
				}
			}
		}
	}
	JOINT RightUpLeg
	{
		OFFSET	-0.124023	-0.065224	 0.008373
		CHANNELS 3 Zrotation Xrotation Yrotation
		JOINT RightLeg
		{
			OFFSET	 0.000000	 0.570047	 0.000000
			CHANNELS 3 Zrotation Xrotation Yrotation
			JOINT RightFoot
			{
				OFFSET	 0.000000	 0.544354	 0.000000
				CHANNELS 3 Zrotation Xrotation Yrotation
				JOINT RightToeBase
				{
					OFFSET	 0.000000	 0.207540	 0.000000
					CHANNELS 3 Zrotation Xrotation Yrotation
					End Site
					{
						OFFSET	 0.000000	 0.207540	 0.000000
					}
				}
			}
		}
	}
	JOINT Spine
	{
		OFFSET	 0.000184	 0.117403	 0.007763
		CHANNELS 3 Zrotation Xrotation Yrotation
		JOINT Spine1
		{
			OFFSET	 0.000000	 0.137269	 0.000000
			CHANNELS 3 Zrotation Xrotation Yrotation
			JOINT Spine2
			{
				OFFSET	 0.000000	 0.156879	 0.000000
				CHANNELS 3 Zrotation Xrotation Yrotation
				JOINT LeftShoulder
				{
					OFFSET	 0.080501	 0.160143	 0.002496
					CHANNELS 3 Zrotation Xrotation Yrotation
					JOINT LeftArm
					{
						OFFSET	 0.000000	 0.164363	 0.000000
						CHANNELS 3 Zrotation Xrotation Yrotation
						JOINT LeftForeArm
						{
							OFFSET	 0.000000	 0.364576	 0.000000
							CHANNELS 3 Zrotation Xrotation Yrotation
							JOINT LeftHand
							{
								OFFSET	 0.000000	 0.360812	 0.000000
								CHANNELS 3 Zrotation Xrotation Yrotation
								JOINT LeftHandIndex1
								{
									OFFSET	 0.000000	 0.086006	 0.000000
									CHANNELS 3 Zrotation Xrotation Yrotation
									JOINT LeftHandIndex2
									{
										OFFSET	 0.000000	 0.047237	 0.000000
										CHANNELS 3 Zrotation Xrotation Yrotation
										JOINT LeftHandIndex3
										{
											OFFSET	-0.004284	 0.038165	 0.000551
											CHANNELS 3 Zrotation Xrotation Yrotation
											End Site
											{
												OFFSET	-0.004284	 0.038165	 0.000551
											}
										}
									}
								}
							}
						}
					}
				}
				JOINT Neck
				{
					OFFSET	 0.000000	 0.176489	 0.000000
					CHANNELS 3 Zrotation Xrotation Yrotation
					JOINT Head
					{
						OFFSET	 0.000000	 0.077941	 0.001747
						CHANNELS 3 Zrotation Xrotation Yrotation
						End Site
						{
							OFFSET	 0.000000	 0.077941	 0.001747
						}
					}
				}
				JOINT RightShoulder
				{
					OFFSET	-0.080363	 0.159706	-0.000306
					CHANNELS 3 Zrotation Xrotation Yrotation
					JOINT RightArm
					{
						OFFSET	 0.000000	 0.164196	 0.000000
						CHANNELS 3 Zrotation Xrotation Yrotation
						JOINT RightForeArm
						{
							OFFSET	 0.000000	 0.365611	 0.000000
							CHANNELS 3 Zrotation Xrotation Yrotation
							JOINT RightHand
							{
								OFFSET	 0.000000	 0.360648	 0.000000
								CHANNELS 3 Zrotation Xrotation Yrotation
								JOINT RightHandIndex1
								{
									OFFSET	 0.000000	 0.069977	 0.000000
									CHANNELS 3 Zrotation Xrotation Yrotation
									JOINT RightHandIndex2
									{
										OFFSET	 0.000000	 0.052305	 0.000000
										CHANNELS 3 Zrotation Xrotation Yrotation
										JOINT RightHandIndex3
										{
											OFFSET	 0.009002	 0.042196	 0.000782
											CHANNELS 3 Zrotation Xrotation Yrotation
											End Site
											{
												OFFSET	 0.009002	 0.042196	 0.000782
											}
										}
									}
								}
							}
						}
					}
				}
			}
		}
	}
}
MOTION
Frames:    6
Frame Time: 0.03333334
 0.000488	 1.274989	 0.121741	 0.321199	-0.005377	 179.994200	 178.029300	 2.413099	 15.199170	 2.802239	-12.994730	 0.061758	-2.681863	 71.487790	 4.157806	 1.292262	 28.425850	-2.713146	-178.015700	 3.901133	-15.283740	-2.197696	-10.565560	 0.063007	 3.007236	 67.797860	-4.076147	-1.288183	 28.361890	 2.710176	-0.118550	 2.866842	-8.115470	 1.821024	 3.267315	-4.188231	-1.722976	-4.120982	 12.231110	-101.478000	 1.740663	 90.353380	-2.024635	 61.886660	 4.783012	 7.557754	 15.388220	 0.432581	 4.461283	-9.728030	-27.936290	-6.580301	 5.266122	 0.000000	 0.000000	 0.000000	 0.000000	 0.000000	 0.000000	 0.000000	 0.089846	-3.783161	 0.005928	-0.024625	 0.930223	 3.032687	 101.796200	-0.213314	-89.955450	-4.543175	 66.228520	-4.181633	-6.276416	 9.521490	 1.804784	-15.343800	 4.406619	-25.735200	 15.208500	 5.323790	 0.000000	 0.000000	 0.000000	 0.000000	 0.000000	 0.000000	 0.000000
 0.000421	 1.275024	 0.121739	 0.347714	-0.006596	 179.993300	 178.049000	 2.423376	 15.200890	 2.806917	-13.015690	 0.062812	-2.676007	 71.498250	 4.150860	 1.292262	 28.425850	-2.713146	-178.013300	 3.859039	-15.282010	-2.176903	-10.467880	 0.066810	 2.995659	 67.748310	-4.072963	-1.288183	 28.361890	 2.710176	-0.059281	 2.502735	-8.007704	 1.738252	 4.522312	-4.173199	-1.571384	-5.735942	 12.030000	-101.478000	 1.740668	 90.353370	-3.614429	 61.658990	 6.264733	 7.756627	 15.622160	 0.325418	 6.101255	-10.386950	-27.242920	-6.580301	 5.266122	 0.000000	 0.000000	 0.000000	 0.000000	 0.000000	 0.000000	 0.000000	 0.089846	-3.783161	 0.005928	-0.019478	 0.751268	 2.970386	 101.796200	-0.213313	-89.955460	-1.256577	 64.613920	-7.222506	-8.539520	 12.720610	 2.229847	-16.373070	 3.167360	-26.200830	 15.208500	 5.323790	 0.000000	 0.000000	 0.000000	 0.000000	 0.000000	 0.000000	 0.000000
 0.000386	 1.275084	 0.121737	 0.361685	-0.008927	 179.993300	 178.067600	 2.414563	 15.201460	 2.801286	-12.990470	 0.061545	-2.668124	 71.485010	 4.146383	 1.292262	 28.425850	-2.713146	-178.022200	 3.818618	-15.280490	-2.156426	-10.371590	 0.070513	 2.980518	 67.699310	-4.066657	-1.288183	 28.361890	 2.710176	 0.004086	 2.100054	-7.630004	 1.585072	 5.912567	-4.003116	-1.350890	-7.544801	 11.365730	-101.478000	 1.740675	 90.353370	-5.393563	 61.428730	 7.914338	 8.007266	 15.813280	 0.152098	 8.157273	-10.940250	-25.407870	-6.580301	 5.266122	 0.000000	 0.000000	 0.000000	 0.000000	 0.000000	 0.000000	 0.000000	 0.089846	-3.783161	 0.005928	-0.013987	 0.574477	 2.789447	 101.796200	-0.213316	-89.955450	 2.292255	 61.822540	-10.455090	-12.330260	 17.814650	 3.216923	-17.339580	 0.910145	-26.511830	 15.208500	 5.323790	 0.000000	 0.000000	 0.000000	 0.000000	 0.000000	 0.000000	 0.000000
 0.000425	 1.275188	 0.121739	 0.350004	-0.012754	 179.995800	 178.082800	 2.369987	 15.200120	 2.776445	-12.879220	 0.055982	-2.658447	 71.427450	 4.148016	 1.292262	 28.425850	-2.713146	-178.051000	 3.786554	-15.279610	-2.139242	-10.290760	 0.073594	 2.958972	 67.657750	-4.053674	-1.288183	 28.361890	 2.710176	 0.044984	 1.749648	-7.041886	 1.387761	 7.124667	-3.691538	-1.115049	-9.142570	 10.336010	-101.478000	 1.740674	 90.353400	-6.959009	 61.275850	 9.357337	 8.231465	 15.870700	-0.044286	 10.211020	-11.169200	-22.750110	-6.580301	 5.266122	 0.000000	 0.000000	 0.000000	 0.000000	 0.000000	 0.000000	 0.000000	 0.089846	-3.783161	 0.005928	-0.009644	 0.438483	 2.519872	 101.796200	-0.213311	-89.955450	 4.797488	 58.707470	-12.655770	-16.678590	 23.186300	 4.740568	-18.155580	-1.781949	-26.542650	 15.208500	 5.323790	 0.000000	 0.000000	 0.000000	 0.000000	 0.000000	 0.000000	 0.000000
 0.000576	 1.275349	 0.121744	 0.297564	-0.018906	 179.999500	 178.090800	 2.270174	 15.195220	 2.722274	-12.636260	 0.044022	-2.640429	 71.302440	 4.153183	 1.292262	 28.425850	-2.713146	-178.109400	 3.772136	-15.279980	-2.129339	-10.244150	 0.075358	 2.934954	 67.632720	-4.037269	-1.288183	 28.361890	 2.710176	 0.062108	 1.352267	-5.952455	 1.068197	 8.510126	-3.054475	-0.793760	-10.998230	 8.419428	-101.478000	 1.740667	 90.353380	-8.776953	 61.204130	 11.021190	 8.482689	 15.743900	-0.331974	 12.965420	-10.933110	-18.048010	-6.580301	 5.266122	 0.000000	 0.000000	 0.000000	 0.000000	 0.000000	 0.000000	 0.000000	 0.089846	-3.783161	 0.005928	-0.005397	 0.304071	 2.033685	 101.796200	-0.213314	-89.955450	 6.759880	 54.190670	-14.173420	-23.534500	 30.551160	 7.874401	-18.986690	-6.177907	-26.220460	 15.208500	 5.323790	 0.000000	 0.000000	 0.000000	 0.000000	 0.000000	 0.000000	 0.000000
 0.000792	 1.275455	 0.121748	 0.216384	-0.021134	-179.998600	 178.074800	 2.159986	 15.188740	 2.665208	-12.379830	 0.031658	-2.621555	 71.171430	 4.157454	 1.292262	 28.425850	-2.713146	-178.166200	 3.809339	-15.282330	-2.146064	-10.322850	 0.072377	 2.933404	 67.671350	-4.032748	-1.288183	 28.361890	 2.710176	 0.040734	 1.067277	-4.634778	 0.723572	 9.532716	-2.222904	-0.504982	-12.390430	 6.074543	-101.478000	 1.740672	 90.353390	-10.141740	 61.294200	 12.259170	 8.664680	 15.417090	-0.621505	 15.437500	-10.086280	-12.570110	-6.580301	 5.266122	 0.000000	 0.000000	 0.000000	 0.000000	 0.000000	 0.000000	 0.000000	 0.089846	-3.783161	 0.005928	-0.002797	 0.220048	 1.456761	 101.796200	-0.213305	-89.955440	 7.329146	 49.664810	-14.204010	-31.473120	 37.426190	 12.392040	-19.274900	-11.349700	-25.603780	 15.208500	 5.323790	 0.000000	 0.000000	 0.000000	 0.000000	 0.000000	 0.000000	 0.000000
